<?xml version="1.0" standalone="no"?>
<!DOCTYPE svg PUBLIC "-//W3C//DTD SVG 20010904//EN"
 "http://www.w3.org/TR/2001/REC-SVG-20010904/DTD/svg10.dtd">
<svg version="1.0" xmlns="http://www.w3.org/2000/svg"
 width="300.000000pt" height="300.000000pt" viewBox="0 0 300.000000 300.000000"
 preserveAspectRatio="xMidYMid meet">
<metadata>
Created by potrace 1.11, written by Peter Selinger 2001-2013
</metadata>
<g transform="translate(0.000000,300.000000) scale(0.100000,-0.100000)"
fill="#000000" stroke="none">
<path d="M1275 2775 c-14 -13 -25 -29 -25 -35 0 -20 20 -50 34 -50 12 0 12 -8
0 -52 -7 -29 -14 -65 -14 -79 0 -23 -4 -26 -25 -21 -14 2 -25 0 -25 -6 0 -6 9
-8 19 -5 23 6 30 -17 20 -67 -5 -19 -5 -37 -1 -40 4 -3 7 -30 7 -60 0 -55 7
-122 19 -170 6 -21 2 -27 -25 -39 -17 -8 -34 -22 -37 -33 -2 -10 -18 -26 -34
-34 -99 -51 -202 -183 -240 -307 -14 -48 -26 -71 -39 -74 -11 -3 -19 -9 -19
-14 0 -5 -6 -9 -14 -9 -8 0 -24 -15 -35 -34 -47 -76 -16 -163 64 -177 16 -3
24 -26 51 -144 18 -77 53 -211 78 -298 51 -175 50 -170 37 -163 -11 7 -90 -79
-113 -122 -12 -23 -24 -32 -43 -32 -32 0 -93 -31 -121 -62 -64 -72 -76 -198
-26 -260 28 -33 41 -46 52 -50 19 -6 15 -175 -5 -246 -10 -34 -22 -65 -26 -68
-35 -21 43 -24 649 -24 l658 0 1 38 c2 72 3 85 9 80 3 -4 7 -12 8 -20 1 -7 11
-32 22 -55 l19 -43 117 0 c65 0 118 4 118 9 0 5 -3 11 -8 13 -14 6 -70 123
-95 198 -39 119 -40 136 -13 157 22 18 55 71 64 103 21 76 -11 183 -72 242
-39 38 -127 80 -175 83 -50 4 -51 4 -49 13 0 4 -1 14 -5 22 -3 8 -8 45 -11 81
-3 37 -17 113 -31 170 -15 57 -28 113 -30 124 -1 11 -5 27 -8 35 -22 54 -49
220 -52 317 -3 103 -1 117 21 162 30 60 69 79 182 87 42 3 80 9 84 13 26 24
-14 211 -59 280 -32 50 -108 92 -198 111 -82 17 -282 15 -380 -4 -153 -31
-140 -32 -154 11 -7 21 -13 46 -15 55 -1 10 -5 21 -9 24 -4 4 -7 16 -7 27 0
12 -5 36 -12 54 -10 28 -10 36 2 43 8 5 17 7 21 4 10 -6 49 45 49 62 0 17 -57
54 -82 54 -15 0 -17 8 -14 48 2 26 4 54 5 63 1 9 12 20 25 23 46 11 39 88 -9
106 -39 15 -54 12 -80 -15z m126 -264 c23 -19 24 -19 5 -40 -11 -12 -29 -21
-41 -21 -18 0 -21 6 -23 40 -2 34 0 40 16 40 11 0 30 -9 43 -19z"/>
<path d="M1185 2503 l-17 -28 23 22 c12 12 20 25 17 28 -3 3 -13 -7 -23 -22z"/>
<path d="M1173 2457 c4 -13 67 -40 67 -29 0 4 -16 15 -36 24 -21 10 -34 12
-31 5z"/>
</g>
</svg>
